<svg width="268" height="268" viewBox="0 0 268 268" fill="none" xmlns="http://www.w3.org/2000/svg">
<circle cx="134" cy="134" r="134" fill="#D1EFDE"/>
<circle cx="134" cy="134" r="112.842" fill="#6FBE91"/>
<circle cx="134.001" cy="134" r="91.6842" fill="#48AA72"/>
<circle cx="134.001" cy="134" r="70.5263" fill="#219653"/>
<g clip-path="url(#clip0_1122_6771)">
<path d="M159.335 113.61C158.932 113.257 158.465 112.992 157.961 112.83C157.458 112.669 156.928 112.613 156.401 112.667C155.875 112.72 155.362 112.882 154.893 113.144C154.424 113.405 154.007 113.76 153.667 114.189L126.963 147.807L117.323 135.887C116.983 135.467 116.567 135.122 116.098 134.872C115.629 134.622 115.117 134.472 114.59 134.431C113.527 134.349 112.471 134.713 111.655 135.446C110.839 136.178 110.328 137.218 110.237 138.336C110.145 139.454 110.48 140.56 111.167 141.409L123.824 157.059C123.824 157.059 124.191 157.48 124.366 157.633C124.769 157.986 125.236 158.252 125.74 158.414C126.244 158.576 126.774 158.632 127.3 158.578C127.827 158.524 128.34 158.362 128.809 158.101C129.278 157.839 129.695 157.484 130.036 157.055L159.818 119.562C160.158 119.133 160.416 118.639 160.576 118.108C160.736 117.577 160.796 117.019 160.751 116.466C160.706 115.913 160.558 115.377 160.315 114.887C160.072 114.397 159.739 113.963 159.335 113.61Z" fill="#E5F9EE"/>
</g>
<defs>
<clipPath id="clip0_1122_6771">
<rect width="50.7789" height="50.7789" fill="white" transform="translate(114.623 107.189) rotate(6.81282)"/>
</clipPath>
</defs>
</svg>
